<?xml version="1.0" encoding="utf-8"?>
<!-- Generator: Adobe Illustrator 17.1.0, SVG Export Plug-In . SVG Version: 6.00 Build 0)  -->
<!DOCTYPE svg PUBLIC "-//W3C//DTD SVG 1.1//EN" "http://www.w3.org/Graphics/SVG/1.1/DTD/svg11.dtd">
<svg version="1.1" id="Working" xmlns="http://www.w3.org/2000/svg" xmlns:xlink="http://www.w3.org/1999/xlink" x="0px" y="0px"
	 viewBox="0 0 536.987 208.686" enable-background="new 0 0 536.987 208.686" xml:space="preserve">
<rect x="0" y="0" fill="#E7E9EA" width="536.987" height="208.686"/>
<g>
	<g>
		<g>
			<path fill="#2A2B2B" d="M467.171,46.898l-342.256-0.095h-0.073c-19.331,0.735-34.239,8.092-44.117,18.907
				c-9.895,10.8-14.786,24.866-14.786,38.847c0,14.067,4.941,28.158,14.904,38.909c9.931,10.725,24.888,17.932,44.176,18.362
				c0.253,0.01,0.982,0.056,2.093,0.056c3.604-0.005,11.255-0.395,19.971-3.342c8.249-2.778,17.505-7.952,24.79-17.314l41.616-0.085
				l9.877,20.571l42.886,0.124v-21.02h10.635v21.01h27.785V133.28l16.781-12.358l37.251,40.791h112.342l-0.1-114.816H467.171z
				 M226.464,155.609l-9.79-20.635h-43.556l6.581-14.676h29.941l-16.645-35.606l-4.599,9.766h-16.709
				c3.634-7.973,7.37-16.139,11.364-23.662h19.875l40.039,84.813H226.464z M259.876,155.559h-16.044V67.543h-118.34v0.04
				c0,0-31.385-2.048-38.725,29.951h0.01c-1.349,7.698-0.354,13.003,0.046,14.671h-0.055c13.651,44.227,67.4,35.531,76.583,0
				h-26.874L94.593,97.609h92.329l-17.416,37.02c-12.231,19.781-35.993,24.471-56.408,19.956
				c-22.26-4.476-42.373-23.038-41.407-50.117c0,0-1.828-49.483,53.68-51.595v-0.01h320.811v14.681h-186.16L259.876,155.559z
				 M263.236,135.074v-14.657h16.046l0.159,14.657H263.236z M464.983,155.723h-14.676v-15.449c0,0-12.219,15.9-35.304,14.985
				c-28.887,0.914-43.857-16.33-49.22-35.131l0.163-39.612l-31.33,22.774l47.377,52.135h-20.94l-39.279-42.505l-23.228,17.434v25.37
				h-16.364l0.16-84.673h16.204v40.806l55.934-40.961h28.145l0.635,44.967c0,0-0.202,24.126,31.299,25.041
				c35.298-1.843,35.608-32.869,35.608-34.712l0.299-53.329h14.516V155.723z"/>
		</g>
	</g>
</g>
</svg>
