<?xml version="1.0" encoding="utf-8"?>
<!-- Generator: Adobe Illustrator 17.1.0, SVG Export Plug-In . SVG Version: 6.00 Build 0)  -->
<!DOCTYPE svg PUBLIC "-//W3C//DTD SVG 1.1//EN" "http://www.w3.org/Graphics/SVG/1.1/DTD/svg11.dtd">
<svg version="1.1" id="Working" xmlns="http://www.w3.org/2000/svg" xmlns:xlink="http://www.w3.org/1999/xlink" x="0px" y="0px"
	 viewBox="0 0 694.15 347.075" enable-background="new 0 0 694.15 347.075" xml:space="preserve">
<rect x="0" y="0" fill="#2A2B2B" width="694.15" height="347.075"/>
<path fill="#E7E9EA" d="M605.046,277.952l-0.168-208.901l-409.736-0.109l-1.683,0.032c-30.759,1.18-58.193,13.316-77.218,34.141
	c-17.5,19.085-27.137,44.176-27.137,70.652c0,26.681,9.745,51.859,27.412,70.868c19.259,20.793,46.764,32.656,77.483,33.425
	c0.672,0.026,1.921,0.071,3.576,0.071c8.152-0.006,20.853-1.021,35.04-5.817c10.669-3.592,20.416-8.751,29.093-15.388l10.045,20.944
	l27.634,0.082H429.06H605.046z M384.838,233.897l-18.515,0.032l-66.695-0.198l-10.436-21.76l-43.632,0.091l-6.375,6.037
	c-5.811,5.502-12.769,9.642-20.705,12.314c-8.531,2.884-16.095,3.494-20.937,3.497c-0.869,0-1.484-0.024-1.933-0.042l-0.287-0.01
	c-18.777-0.422-35.242-7.266-46.389-19.301c-10.065-10.829-15.608-25.315-15.608-40.79c0-15.38,5.508-29.858,15.536-40.795
	c10.971-12.008,27.333-19.036,46.091-19.801l0.388-0.007l365.35,0.097l0.098,120.468H442.668l-57.83-63.328V233.897z"/>
</svg>
